<?xml version="1.0" encoding="utf-8"?>
<!-- Generator: Adobe Illustrator 24.3.0, SVG Export Plug-In . SVG Version: 6.00 Build 0)  -->
<svg version="1.1" id="Layer_1" xmlns="http://www.w3.org/2000/svg" xmlns:xlink="http://www.w3.org/1999/xlink" x="0px" y="0px"
	 viewBox="0 0 104 104" style="enable-background:new 0 0 104 104;" xml:space="preserve">
<style type="text/css">
	.st0{fill-rule:evenodd;clip-rule:evenodd;fill:#FFFFFF;}
</style>
<g>
	<g transform="translate(-1012.000000, -8195.000000)">
		
			<g transform="translate(1063.796521, 8247.186829) rotate(135.000000) translate(-1063.796521, -8247.186829) translate(1037.000000, 8201.000000)">
			<g transform="translate(0.000000, 8.587299)">
				<path class="st0" d="M10.8,35.1C3.4,37.6,0.4,44.1,0,51.9c-0.6,11,4.2,24.4,8.5,31.1c0.5,0.8,1.5,1,2.1,0.4
					c0.7-0.6,0.8-1.7,0.3-2.5c-4-6.2-8.4-18.7-7.9-28.9c0.3-6.3,2.6-11.7,8.5-13.6c1.3-0.4,2.4-0.4,3.5,0.1c-0.3,0.8-0.7,1.6-1,2.3
					c-1.2,3.1-3.1,11.8-2.4,18.2c0.5,5.1,2.6,8.7,6.9,8.6c2.5-0.1,4.3-1.8,5.4-4.6c1.3-3.5,1.5-8.7,0.6-13.8
					c-0.8-4.2-2.3-8.3-4.5-11c-0.3-0.4-0.6-0.7-1-1.1C26.3,22.7,39.3,9.2,52.6,3.4c0.8-0.3,1.2-1.4,0.9-2.3c-0.3-0.9-1.2-1.4-2-1
					c-13.9,6-27.4,20.1-34.9,35.3C14.8,34.6,12.9,34.4,10.8,35.1z M16.9,42.3c-1.1,2.8-2.7,10.6-2.1,16.4c0.3,3,1.2,5.6,3.8,5.5
					c1.3,0,2.1-1.1,2.7-2.5c0.7-1.9,1-4.5,0.9-7.2c-0.2-4.3-1.3-8.9-3.3-12.3c-0.4-0.6-0.8-1.2-1.2-1.7
					C17.4,41.1,17.2,41.7,16.9,42.3z"/>
			</g>
			<g transform="translate(39.276765, 8.602619)">
				<path class="st0" d="M13.7,3c0.6-0.7,0.6-1.8,0-2.5c-0.6-0.7-1.6-0.6-2.2,0.1C6.2,6.9,1.3,16.1,0,24.7c-0.1,1,0.4,1.9,1.2,2
					c0.8,0.2,1.6-0.5,1.8-1.4C4.2,17.3,8.8,8.9,13.7,3z"/>
			</g>
			
				<g transform="translate(38.558032, 11.390827) scale(-1, 1) rotate(-111.000000) translate(-38.558032, -11.390827) translate(31.498590, -2.003982)">
				<path class="st0" d="M13.7,3c0.6-0.7,0.6-1.8,0-2.5c-0.6-0.7-1.6-0.6-2.2,0.1C6.2,6.9,1.3,16.1,0,24.7c-0.1,1,0.4,1.9,1.2,2
					c0.8,0.2,1.6-0.5,1.8-1.4C4.2,17.3,8.8,8.9,13.7,3z"/>
			</g>
		</g>
	</g>
</g>
</svg>
